<svg width="69" height="69" viewBox="0 0 69 69" fill="none" xmlns="http://www.w3.org/2000/svg">
<path d="M54.625 11.5H14.375C12.0875 11.5 9.89371 12.4087 8.2762 14.0262C6.6587 15.6437 5.75 17.8375 5.75 20.125V48.875C5.75 51.1625 6.6587 53.3563 8.2762 54.9738C9.89371 56.5913 12.0875 57.5 14.375 57.5H54.625C56.9125 57.5 59.1063 56.5913 60.7238 54.9738C62.3413 53.3563 63.25 51.1625 63.25 48.875V20.125C63.25 17.8375 62.3413 15.6437 60.7238 14.0262C59.1063 12.4087 56.9125 11.5 54.625 11.5ZM52.6987 17.25L34.5 30.9062L16.3013 17.25H52.6987ZM54.625 51.75H14.375C13.6125 51.75 12.8812 51.4471 12.3421 50.9079C11.8029 50.3688 11.5 49.6375 11.5 48.875V20.8438L32.775 36.8C33.2726 37.1732 33.8779 37.375 34.5 37.375C35.1221 37.375 35.7274 37.1732 36.225 36.8L57.5 20.8438V48.875C57.5 49.6375 57.1971 50.3688 56.6579 50.9079C56.1188 51.4471 55.3875 51.75 54.625 51.75Z" fill="#01FFF0"/>
</svg>
