<svg width="908" height="908" viewBox="0 0 908 908" fill="none" xmlns="http://www.w3.org/2000/svg">
<path d="M484.458 636.372L521.463 572.858C521.964 571.988 522.263 571.017 522.337 570.016C522.412 569.015 522.26 568.01 521.893 567.076C521.538 566.142 520.979 565.3 520.256 564.611C519.533 563.922 518.665 563.404 517.715 563.095L459.021 544.366C457.57 543.908 456.005 543.959 454.587 544.511C453.168 545.062 451.981 546.082 451.221 547.4L423.164 595.556C420.306 591.398 416.178 588.279 411.398 586.667C406.618 585.055 401.443 585.036 396.652 586.613C391.86 588.191 387.709 591.28 384.821 595.416C381.933 599.553 380.465 604.514 380.636 609.556C380.806 614.598 382.607 619.448 385.769 623.38C388.93 627.311 393.28 630.112 398.168 631.361C403.056 632.611 408.216 632.242 412.877 630.31C417.537 628.378 421.445 624.986 424.014 620.645C424.657 619.68 425.241 618.677 425.764 617.643L460.077 558.748L505.71 573.347L481.858 614.285C478.999 610.125 474.868 607.005 470.084 605.393C465.301 603.782 460.123 603.765 455.33 605.347C450.537 606.929 446.386 610.023 443.501 614.165C440.616 618.307 439.153 623.273 439.331 628.318C439.509 633.362 441.319 638.213 444.489 642.141C447.658 646.069 452.017 648.863 456.91 650.102C461.803 651.342 466.966 650.961 471.624 649.016C476.282 647.071 480.183 643.667 482.742 639.316C483.368 638.367 483.941 637.384 484.458 636.372ZM399.057 617.551C397.43 616.602 396.106 615.212 395.237 613.541C394.369 611.869 393.992 609.986 394.151 608.11C394.31 606.233 394.998 604.44 396.135 602.939C397.272 601.437 398.811 600.289 400.574 599.627C402.337 598.966 404.252 598.817 406.096 599.2C407.94 599.583 409.638 600.481 410.992 601.789C412.346 603.098 413.302 604.764 413.747 606.594C414.193 608.424 414.11 610.342 413.509 612.127C413.23 612.736 412.892 613.316 412.5 613.859C411.188 616.111 409.046 617.76 406.532 618.45C404.019 619.14 401.335 618.817 399.057 617.551ZM457.751 636.28C456.1 635.335 454.751 633.939 453.864 632.256C452.976 630.573 452.586 628.672 452.738 626.775C452.891 624.878 453.581 623.064 454.726 621.545C455.872 620.026 457.426 618.864 459.208 618.195C460.989 617.526 462.924 617.379 464.787 617.769C466.649 618.16 468.362 619.072 469.725 620.4C471.088 621.728 472.045 623.416 472.483 625.268C472.922 627.119 472.825 629.058 472.203 630.856C471.924 631.465 471.586 632.045 471.194 632.588C469.852 634.856 467.671 636.505 465.123 637.177C462.575 637.849 459.864 637.49 457.578 636.179L457.751 636.28Z" fill="white"/>
<path d="M666.612 640.718C639.701 671.385 606.469 695.862 569.199 712.467C531.929 729.071 491.507 737.41 450.709 736.908C409.911 736.407 369.705 727.077 332.855 709.562C296.005 692.046 263.384 666.76 237.234 635.44L274.271 604.517C295.957 630.49 323.008 651.46 353.568 665.985C384.127 680.51 417.469 688.247 451.302 688.663C485.135 689.078 518.657 682.164 549.563 668.394C580.47 654.624 608.029 634.326 630.347 608.894L666.612 640.718Z" fill="white"/>
</svg>
